<?xml version="1.0" standalone="no"?>
<!DOCTYPE svg PUBLIC "-//W3C//DTD SVG 20010904//EN"
 "http://www.w3.org/TR/2001/REC-SVG-20010904/DTD/svg10.dtd">
<svg version="1.0" xmlns="http://www.w3.org/2000/svg"
 width="640.000000pt" height="640.000000pt" viewBox="0 0 640.000000 640.000000"
 preserveAspectRatio="xMidYMid meet">
  <metadata>
    Created by potrace 1.15, written by Peter Selinger 2001-2017
  </metadata>
  <g transform="translate(0.000000,640.000000) scale(0.100000,-0.100000)"
    fill="#000000" stroke="none">
    <path d="M1190 3155 l0 -2995 675 0 675 0 0 1025 0 1025 301 -2 300 -3 390
      -765 c215 -421 449 -881 520 -1022 l130 -258 765 0 c488 0 764 4 764 10 0 5
      -274 537 -610 1182 -335 644 -609 1172 -607 1174 1 1 25 13 53 27 119 60 232
      147 353 273 218 227 337 445 414 764 47 190 60 324 60 580 0 322 -21 514 -83
      761 -162 645 -583 1046 -1225 1169 -257 49 -287 50 -1622 50 l-1253 0 0 -2995z
      m2923 2724 c119 -30 192 -56 303 -109 362 -174 601 -511 699 -986 34 -166 46
      -287 52 -524 8 -369 -25 -593 -126 -850 -138 -353 -427 -633 -778 -754 l-63
      -21 526 -1010 c289 -556 554 -1065 589 -1132 l65 -123 -538 0 -537 0 -519
      1022 c-342 672 -519 1031 -518 1047 1 14 42 213 90 441 l88 415 105 11 c119
      13 199 34 279 74 178 90 294 266 347 527 27 136 25 494 -4 620 -55 236 -161
      384 -336 469 -40 20 -56 33 -53 44 3 8 44 200 91 425 47 226 88 418 91 428 6
      20 13 20 147 -14z m-498 -1024 c238 -45 346 -194 377 -516 13 -143 1 -332 -28
      -449 -38 -154 -114 -264 -221 -322 -103 -56 -121 -58 -685 -58 l-518 0 0 680
      0 680 499 0 c398 0 515 -3 576 -15z"/>
  </g>
</svg>
